<svg xmlns="http://www.w3.org/2000/svg" width="211.66666mm" height="39.050911mm" viewBox="0 0 211.66666 39.050911"><path fill="#fff" d="m96.449 96.01 23.028 42.146H76.75l-19.443-36.017h-18.42v36.017H0V10.483h71.121c29.421 0 48.1 16.328 48.1 45.694 0 18.895-8.699 32.431-22.772 39.834zM38.887 43.665v25.28h27.63c8.186 0 13.303-4.852 13.303-12.768 0-7.915-5.117-12.512-13.303-12.512zm204.157 103.93L126.64 116.186 157.852 0l58.201 15.704 58.202 15.704zm-22.002-85.545-32.491-8.937-8.698 32.43 32.491 8.94zm186.505 40.09c0 24.513-15.606 36.017-39.91 36.017h-76.238V10.483h73.68c24.304 0 39.91 12.512 39.91 34.472 0 13.788-5.117 22.984-14.839 29.367 11.001 4.836 17.397 14.542 17.397 27.817zm-78.285-61.015V60.02h25.314c6.908 0 11.001-3.064 11.001-9.703 0-6.128-4.093-9.193-11.001-9.193zm0 66.391h28.398c6.651 0 10.502-3.575 10.502-9.706 0-6.636-3.837-9.7-10.502-9.7h-28.398zm97.473-97.032h38.881v89.871h55.771v37.802h-94.658zm237.671 63.84a66.301 66.301 0 0 1-11.21 36.884 66.491 66.491 0 0 1-29.852 24.452 66.629 66.629 0 0 1-38.431 3.778 66.56 66.56 0 0 1-34.058-18.17 66.35 66.35 0 0 1-18.204-33.993 66.274 66.274 0 0 1 3.785-38.358 66.42 66.42 0 0 1 24.499-29.795 66.605 66.605 0 0 1 36.954-11.19 66.502 66.502 0 0 1 25.473 5.018 66.397 66.397 0 0 1 21.596 14.385 66.242 66.242 0 0 1 14.416 21.552 66.15 66.15 0 0 1 5.032 25.423zm-38.887 0c0-15.835-12.536-28.347-27.63-28.347s-27.632 12.512-27.632 28.346c0 15.835 12.538 28.344 27.632 28.344 15.094 0 27.63-12.528 27.63-28.357zm132.522-2.046L800 138.156h-46.319l-23.014-37.549-23.793 37.549h-47.073l43.747-64.35-40.165-63.323h46.305l21.234 34.472 20.467-34.472h46.05z" style="fill:#000;fill-opacity:1" transform="scale(.26458)"/></svg>
